<?xml version="1.0" encoding="UTF-8" standalone="no"?><svg xmlns="http://www.w3.org/2000/svg" xmlns:xlink="http://www.w3.org/1999/xlink" contentScriptType="application/ecmascript" contentStyleType="text/css" height="552px" preserveAspectRatio="none" style="width:808px;height:552px;background:#FFFFFF;" version="1.1" viewBox="0 0 808 552" width="808px" zoomAndPan="magnify"><defs><filter height="300%" id="f1bbq9xq1hxvf3" width="300%" x="-1" y="-1"><feGaussianBlur result="blurOut" stdDeviation="2.0"/><feColorMatrix in="blurOut" result="blurOut2" type="matrix" values="0 0 0 0 0 0 0 0 0 0 0 0 0 0 0 0 0 0 .4 0"/><feOffset dx="4.0" dy="4.0" in="blurOut2" result="blurOut3"/><feBlend in="SourceGraphic" in2="blurOut3" mode="normal"/></filter></defs><g><!--MD5=[fe9f0e2df9619bbff65f101b3e19c400]
cluster Dapper.Data--><polygon fill="#FFFFFF" filter="url(#f1bbq9xq1hxvf3)" points="16,156,108,156,115,179.6094,791,179.6094,791,545,16,545,16,156" style="stroke:#000000;stroke-width:1.5;"/><line style="stroke:#000000;stroke-width:1.5;" x1="16" x2="115" y1="179.6094" y2="179.6094"/><text fill="#000000" font-family="sans-serif" font-size="14" font-weight="bold" lengthAdjust="spacing" textLength="86" x="20" y="172.5332">Dapper.Data</text><!--MD5=[4f3579efc4fd81f123d4db48c91b5f36]
cluster Dapper.Domain--><polygon fill="#FFFFFF" filter="url(#f1bbq9xq1hxvf3)" points="518,6,631,6,638,29.6094,736,29.6094,736,106,518,106,518,6" style="stroke:#000000;stroke-width:1.5;"/><line style="stroke:#000000;stroke-width:1.5;" x1="518" x2="638" y1="29.6094" y2="29.6094"/><text fill="#000000" font-family="sans-serif" font-size="14" font-weight="bold" lengthAdjust="spacing" textLength="107" x="522" y="22.5332">Dapper.Domain</text><!--MD5=[06b6d3908e4825e9bd17086a0a9e0251]
class ISqlConnection--><rect codeLine="12" fill="#F0F8FF" filter="url(#f1bbq9xq1hxvf3)" height="172.5234" id="ISqlConnection" style="stroke:#A80036;stroke-width:1.5;" width="234" x="32" y="192"/><ellipse cx="102.25" cy="208" fill="#B4A7E5" rx="11" ry="11" style="stroke:#A80036;stroke-width:1.0;"/><path d="M103.25,205 L103.25,211 L105.25,211 L105.7344,211 L106.25,211.625 L106.25,212 L106.25,212.375 L105.7344,213 L105.25,213 L99.25,213 L98.7656,213 L98.25,212.375 L98.25,212 L98.25,211.625 L98.7656,211 L99.25,211 L101.25,211 L101.25,205 L99.25,205 L98.7656,205 L98.25,204.375 L98.25,204 L98.25,203.625 L98.7656,203 L99.25,203 L105.25,203 L105.7344,203 L106.25,203.625 L106.25,204 L106.25,204.375 L105.7344,205 L105.25,205 L103.25,205 Z " fill="#000000"/><text fill="#000000" font-family="sans-serif" font-size="12" font-style="italic" lengthAdjust="spacing" textLength="85" x="122.75" y="212.9102">ISqlConnection</text><line style="stroke:#A80036;stroke-width:1.5;" x1="33" x2="265" y1="224" y2="224"/><line style="stroke:#A80036;stroke-width:1.5;" x1="33" x2="265" y1="232" y2="232"/><text fill="#000000" font-family="sans-serif" font-size="11" lengthAdjust="spacing" textLength="137" x="38" y="247.4189">Task&lt;int&gt; ExecuteAsync(...)</text><text fill="#000000" font-family="sans-serif" font-size="11" lengthAdjust="spacing" textLength="211" x="38" y="261.2549">Task&lt;IEnumerable&lt;T&gt;&gt; QueryAsync&lt;T&gt;(...)</text><text fill="#000000" font-family="sans-serif" font-size="11" lengthAdjust="spacing" textLength="162" x="38" y="275.0908">Task&lt;T&gt; QueryFirstAsync&lt;T&gt;(...)</text><text fill="#000000" font-family="sans-serif" font-size="11" lengthAdjust="spacing" textLength="214" x="38" y="288.9268">Task&lt;T?&gt; QueryFirstOrDefaultAsync&lt;T&gt;(...)</text><text fill="#000000" font-family="sans-serif" font-size="11" lengthAdjust="spacing" textLength="170" x="38" y="302.7627">Task&lt;T&gt; QuerySingleAsync&lt;T&gt;(...)</text><text fill="#000000" font-family="sans-serif" font-size="11" lengthAdjust="spacing" textLength="222" x="38" y="316.5986">Task&lt;T?&gt; QuerySingleOrDefaultAsync&lt;T&gt;(...)</text><text fill="#000000" font-family="sans-serif" font-size="11" lengthAdjust="spacing" textLength="209" x="38" y="330.4346">Task&lt;IGridReader&gt; QueryMultipleAsync(...)</text><text fill="#000000" font-family="sans-serif" font-size="11" lengthAdjust="spacing" textLength="57" x="38" y="344.2705">void Open()</text><text fill="#000000" font-family="sans-serif" font-size="11" lengthAdjust="spacing" textLength="178" x="38" y="358.1064">ISqlTransaction BeginTransaction(...)</text><!--MD5=[c4c317a02ea113747ad4145eee4d2a50]
class ISqlTransaction--><rect codeLine="24" fill="#F0F8FF" filter="url(#f1bbq9xq1hxvf3)" height="75.6719" id="ISqlTransaction" style="stroke:#A80036;stroke-width:1.5;" width="169" x="301.5" y="240.5"/><ellipse cx="339.45" cy="256.5" fill="#B4A7E5" rx="11" ry="11" style="stroke:#A80036;stroke-width:1.0;"/><path d="M340.45,253.5 L340.45,259.5 L342.45,259.5 L342.9344,259.5 L343.45,260.125 L343.45,260.5 L343.45,260.875 L342.9344,261.5 L342.45,261.5 L336.45,261.5 L335.9656,261.5 L335.45,260.875 L335.45,260.5 L335.45,260.125 L335.9656,259.5 L336.45,259.5 L338.45,259.5 L338.45,253.5 L336.45,253.5 L335.9656,253.5 L335.45,252.875 L335.45,252.5 L335.45,252.125 L335.9656,251.5 L336.45,251.5 L342.45,251.5 L342.9344,251.5 L343.45,252.125 L343.45,252.5 L343.45,252.875 L342.9344,253.5 L342.45,253.5 L340.45,253.5 Z " fill="#000000"/><text fill="#000000" font-family="sans-serif" font-size="12" font-style="italic" lengthAdjust="spacing" textLength="86" x="358.55" y="261.4102">ISqlTransaction</text><line style="stroke:#A80036;stroke-width:1.5;" x1="302.5" x2="469.5" y1="272.5" y2="272.5"/><line style="stroke:#A80036;stroke-width:1.5;" x1="302.5" x2="469.5" y1="280.5" y2="280.5"/><text fill="#000000" font-family="sans-serif" font-size="11" lengthAdjust="spacing" textLength="65" x="307.5" y="295.9189">void Commit()</text><text fill="#000000" font-family="sans-serif" font-size="11" lengthAdjust="spacing" textLength="157" x="307.5" y="309.7549">IDbTransaction GetTransaction()</text><!--MD5=[947fb31728366a3e780d3ae6758759c8]
class IGridReader--><rect codeLine="29" fill="#F0F8FF" filter="url(#f1bbq9xq1hxvf3)" height="61.8359" id="IGridReader" style="stroke:#A80036;stroke-width:1.5;" width="218" x="40" y="443"/><ellipse cx="110.75" cy="459" fill="#B4A7E5" rx="11" ry="11" style="stroke:#A80036;stroke-width:1.0;"/><path d="M111.75,456 L111.75,462 L113.75,462 L114.2344,462 L114.75,462.625 L114.75,463 L114.75,463.375 L114.2344,464 L113.75,464 L107.75,464 L107.2656,464 L106.75,463.375 L106.75,463 L106.75,462.625 L107.2656,462 L107.75,462 L109.75,462 L109.75,456 L107.75,456 L107.2656,456 L106.75,455.375 L106.75,455 L106.75,454.625 L107.2656,454 L107.75,454 L113.75,454 L114.2344,454 L114.75,454.625 L114.75,455 L114.75,455.375 L114.2344,456 L113.75,456 L111.75,456 Z " fill="#000000"/><text fill="#000000" font-family="sans-serif" font-size="12" font-style="italic" lengthAdjust="spacing" textLength="68" x="131.25" y="463.9102">IGridReader</text><line style="stroke:#A80036;stroke-width:1.5;" x1="41" x2="257" y1="475" y2="475"/><line style="stroke:#A80036;stroke-width:1.5;" x1="41" x2="257" y1="483" y2="483"/><text fill="#000000" font-family="sans-serif" font-size="11" lengthAdjust="spacing" textLength="206" x="46" y="498.4189">Task&lt;IEnumerable&lt;T&gt;&gt; ReadAsync&lt;T&gt;(...)</text><!--MD5=[4fa5f4b60431c52a336c2dd2bb24902d]
class AdventureWorksRepository--><rect codeLine="5" fill="#F0F8FF" filter="url(#f1bbq9xq1hxvf3)" height="48" id="AdventureWorksRepository" style="stroke:#A80036;stroke-width:1.5;" width="180" x="537" y="254.5"/><ellipse cx="552" cy="270.5" fill="#ADD1B2" rx="11" ry="11" style="stroke:#A80036;stroke-width:1.0;"/><path d="M554,267 Q554.2031,266.5 554.4375,266.25 Q554.6719,266 554.9375,266 Q555.4063,266 555.7031,266.2813 Q556,266.5625 556,267.2188 L556,268.7813 Q556,269.4375 555.7188,269.7188 Q555.4375,270 555,270 Q554.6094,270 554.3594,269.8281 Q554.1094,269.6563 554,269.2031 Q553.9531,268.8906 553.7813,268.7188 Q553.4688,268.3906 552.9063,268.2031 Q552.3438,268 551.7813,268 Q551.0781,268 550.4844,268.2813 Q549.9063,268.5625 549.4531,269.1875 Q549,269.8125 549,270.6719 L549,271.5938 Q549,272.625 549.8438,273.3125 Q550.6875,274 552.1875,274 Q553.0781,274 553.7031,273.7969 Q554.0625,273.6875 554.4688,273.3281 Q554.7344,273.125 554.875,273.0625 Q555.0156,273 555.1875,273 Q555.5156,273 555.75,273.2656 Q556,273.5156 556,273.875 Q556,274.2188 555.6563,274.625 Q555.1563,275.2188 554.3594,275.5469 Q553.3125,276 552.0313,276 Q550.5313,276 549.3281,275.4063 Q548.3594,274.9375 547.6719,273.9219 Q547,272.9063 547,271.7031 L547,270.6094 Q547,269.3594 547.5938,268.2656 Q548.2031,267.1719 549.25,266.5938 Q550.3125,266 551.5,266 Q552.2188,266 552.8438,266.25 Q553.4688,266.5 554,267 Z " fill="#000000"/><text fill="#000000" font-family="sans-serif" font-size="12" lengthAdjust="spacing" textLength="148" x="566" y="275.4102">AdventureWorksRepository</text><line style="stroke:#A80036;stroke-width:1.5;" x1="538" x2="716" y1="286.5" y2="286.5"/><line style="stroke:#A80036;stroke-width:1.5;" x1="538" x2="716" y1="294.5" y2="294.5"/><!--MD5=[5214e55013701c2f87e7ebcf80a373cb]
class IConnectionProvider--><rect codeLine="7" fill="#F0F8FF" filter="url(#f1bbq9xq1hxvf3)" height="61.8359" id="IConnectionProvider" style="stroke:#A80036;stroke-width:1.5;" width="247" x="503.5" y="443"/><ellipse cx="566.25" cy="459" fill="#B4A7E5" rx="11" ry="11" style="stroke:#A80036;stroke-width:1.0;"/><path d="M567.25,456 L567.25,462 L569.25,462 L569.7344,462 L570.25,462.625 L570.25,463 L570.25,463.375 L569.7344,464 L569.25,464 L563.25,464 L562.7656,464 L562.25,463.375 L562.25,463 L562.25,462.625 L562.7656,462 L563.25,462 L565.25,462 L565.25,456 L563.25,456 L562.7656,456 L562.25,455.375 L562.25,455 L562.25,454.625 L562.7656,454 L563.25,454 L569.25,454 L569.7344,454 L570.25,454.625 L570.25,455 L570.25,455.375 L569.7344,456 L569.25,456 L567.25,456 Z " fill="#000000"/><text fill="#000000" font-family="sans-serif" font-size="12" font-style="italic" lengthAdjust="spacing" textLength="113" x="586.75" y="463.9102">IConnectionProvider</text><line style="stroke:#A80036;stroke-width:1.5;" x1="504.5" x2="749.5" y1="475" y2="475"/><line style="stroke:#A80036;stroke-width:1.5;" x1="504.5" x2="749.5" y1="483" y2="483"/><text fill="#000000" font-family="sans-serif" font-size="11" lengthAdjust="spacing" textLength="235" x="509.5" y="498.4189">ISqlConnection GetAdventureWorksConnection()</text><!--MD5=[960ed0b7eded405ddee382ada03bace7]
class IAdventureWorksRepository--><rect codeLine="35" fill="#F0F8FF" filter="url(#f1bbq9xq1hxvf3)" height="48" id="IAdventureWorksRepository" style="stroke:#A80036;stroke-width:1.5;" width="186" x="534" y="42"/><ellipse cx="549" cy="58" fill="#B4A7E5" rx="11" ry="11" style="stroke:#A80036;stroke-width:1.0;"/><path d="M550,55 L550,61 L552,61 L552.4844,61 L553,61.625 L553,62 L553,62.375 L552.4844,63 L552,63 L546,63 L545.5156,63 L545,62.375 L545,62 L545,61.625 L545.5156,61 L546,61 L548,61 L548,55 L546,55 L545.5156,55 L545,54.375 L545,54 L545,53.625 L545.5156,53 L546,53 L552,53 L552.4844,53 L553,53.625 L553,54 L553,54.375 L552.4844,55 L552,55 L550,55 Z " fill="#000000"/><text fill="#000000" font-family="sans-serif" font-size="12" font-style="italic" lengthAdjust="spacing" textLength="154" x="563" y="62.9102">IAdventureWorksRepository</text><line style="stroke:#A80036;stroke-width:1.5;" x1="535" x2="719" y1="74" y2="74"/><line style="stroke:#A80036;stroke-width:1.5;" x1="535" x2="719" y1="82" y2="82"/><!--MD5=[4f052f259452290825067218bd3b3450]
reverse link IAdventureWorksRepository to AdventureWorksRepository--><path codeLine="38" d="M627,110.63 C627,154.32 627,219.89 627,254.38 " fill="none" id="IAdventureWorksRepository-backto-AdventureWorksRepository" style="stroke:#A80036;stroke-width:1.0;"/><polygon fill="none" points="620,110.33,627,90.33,634,110.33,620,110.33" style="stroke:#A80036;stroke-width:1.0;"/><text fill="#000000" font-family="sans-serif" font-size="13" lengthAdjust="spacing" textLength="67" x="628" y="136.4951">implements</text><!--MD5=[84d57b00b8897007f279384199f2a62a]
reverse link AdventureWorksRepository to IConnectionProvider--><path codeLine="39" d="M627,315.88 C627,352.59 627,408.62 627,442.91 " fill="none" id="AdventureWorksRepository-backto-IConnectionProvider" style="stroke:#A80036;stroke-width:1.0;"/><polygon fill="#A80036" points="627,302.84,623,308.84,627,314.84,631,308.84,627,302.84" style="stroke:#A80036;stroke-width:1.0;"/><text fill="#000000" font-family="sans-serif" font-size="13" lengthAdjust="spacing" textLength="49" x="628" y="409.4951">contains</text><!--MD5=[8953a27e72b74fe8146537bb133fb003]
link ISqlConnection to ISqlTransaction--><!--MD5=[6beb8209ad8808ba876f253ea18721ff]
link ISqlConnection to IGridReader--><!--MD5=[4e22a3d84c3300ca8b82fcddae42bcab]
@startuml
'https://plantuml.com/class-diagram

package Dapper.Data {
  together {
    class AdventureWorksRepository #aliceblue

    interface IConnectionProvider #aliceblue {
      ISqlConnection GetAdventureWorksConnection()
    }
  }

  interface ISqlConnection #aliceblue {
    Task<int> ExecuteAsync(...)
    Task<IEnumerable<T>> QueryAsync<T>(...)
    Task<T> QueryFirstAsync<T>(...)
    Task<T?> QueryFirstOrDefaultAsync<T>(...)
    Task<T> QuerySingleAsync<T>(...)
    Task<T?> QuerySingleOrDefaultAsync<T>(...)
    Task<IGridReader> QueryMultipleAsync(...)
    void Open()
    ISqlTransaction BeginTransaction(...)
  }

  interface ISqlTransaction #aliceblue {
    void Commit()
    IDbTransaction GetTransaction()
  }

  interface IGridReader #aliceblue {
    Task<IEnumerable<T>> ReadAsync<T>(...)
  }
}

package Dapper.Domain {
  interface IAdventureWorksRepository #aliceblue
}

IAdventureWorksRepository <|- - AdventureWorksRepository : implements
AdventureWorksRepository *- - IConnectionProvider : contains

@enduml

@startuml

package Dapper.Data {
  together {
    class AdventureWorksRepository #aliceblue

    interface IConnectionProvider #aliceblue {
      ISqlConnection GetAdventureWorksConnection()
    }
  }

  interface ISqlConnection #aliceblue {
    Task<int> ExecuteAsync(...)
    Task<IEnumerable<T>> QueryAsync<T>(...)
    Task<T> QueryFirstAsync<T>(...)
    Task<T?> QueryFirstOrDefaultAsync<T>(...)
    Task<T> QuerySingleAsync<T>(...)
    Task<T?> QuerySingleOrDefaultAsync<T>(...)
    Task<IGridReader> QueryMultipleAsync(...)
    void Open()
    ISqlTransaction BeginTransaction(...)
  }

  interface ISqlTransaction #aliceblue {
    void Commit()
    IDbTransaction GetTransaction()
  }

  interface IGridReader #aliceblue {
    Task<IEnumerable<T>> ReadAsync<T>(...)
  }
}

package Dapper.Domain {
  interface IAdventureWorksRepository #aliceblue
}

IAdventureWorksRepository <|- - AdventureWorksRepository : implements
AdventureWorksRepository *- - IConnectionProvider : contains

@enduml

PlantUML version 1.2021.16(Wed Dec 08 11:25:22 CST 2021)
(GPL source distribution)
Java Runtime: OpenJDK Runtime Environment
JVM: Dynamic Code Evolution 64-Bit Server VM
Default Encoding: Cp1252
Language: en
Country: US
--></g></svg>